<svg aria-hidden="true" style="position: absolute; width: 0; height: 0; overflow: hidden;" version="1.1" xmlns="http://www.w3.org/2000/svg" xmlns:xlink="http://www.w3.org/1999/xlink">
<defs>
<symbol id="icon-wi-celsius" viewBox="0 0 32 32">
<path d="M10.4 11.712c0-0.533 0.192-0.992 0.565-1.365 0.384-0.384 0.832-0.565 1.365-0.565 0.523 0 0.981 0.192 1.355 0.565 0.373 0.384 0.565 0.832 0.565 1.365s-0.192 0.992-0.565 1.365c-0.373 0.384-0.832 0.565-1.355 0.565-0.533 0-0.992-0.192-1.365-0.565s-0.565-0.832-0.565-1.365zM11.339 11.712c0 0.277 0.096 0.512 0.288 0.715 0.203 0.203 0.437 0.299 0.715 0.299s0.512-0.096 0.715-0.299 0.299-0.437 0.299-0.715c0-0.277-0.096-0.512-0.299-0.715s-0.437-0.299-0.715-0.299c-0.277 0-0.512 0.096-0.715 0.299-0.192 0.192-0.288 0.437-0.288 0.715zM15.488 16.427c0 0.821 0.224 1.547 0.683 2.187 0.235 0.331 0.565 0.597 0.992 0.8 0.416 0.192 0.896 0.299 1.429 0.299 1.557 0 2.539-0.597 2.933-1.781 0.043-0.149 0.021-0.299-0.064-0.437s-0.203-0.213-0.352-0.245c-0.149-0.043-0.299-0.021-0.427 0.075-0.128 0.085-0.213 0.203-0.245 0.363 0 0.011 0 0.021-0.011 0.053l-0.021 0.075c-0.117 0.203-0.277 0.363-0.48 0.48-0.331 0.203-0.768 0.299-1.312 0.299-0.331 0-0.629-0.053-0.885-0.171-0.427-0.181-0.725-0.501-0.907-0.949-0.117-0.288-0.181-0.64-0.181-1.035v-3.435c0-0.16 0.011-0.32 0.032-0.48 0.043-0.405 0.203-0.779 0.48-1.109 0.309-0.373 0.8-0.555 1.472-0.555 0.555 0 0.992 0.096 1.312 0.288 0.213 0.128 0.373 0.288 0.48 0.48 0.011 0.021 0.011 0.053 0.021 0.085s0.011 0.053 0.011 0.064c0.043 0.149 0.128 0.256 0.245 0.32 0.128 0.075 0.267 0.085 0.427 0.053 0.149-0.032 0.267-0.117 0.352-0.245s0.107-0.267 0.064-0.427v-0.011l-0.085-0.245c-0.053-0.117-0.149-0.277-0.299-0.459-0.139-0.192-0.309-0.341-0.48-0.469-0.224-0.16-0.512-0.288-0.875-0.405-0.363-0.107-0.757-0.16-1.184-0.16-0.544 0-1.013 0.096-1.44 0.288-0.416 0.192-0.747 0.448-0.971 0.779-0.459 0.629-0.693 1.365-0.693 2.208v3.424z"></path>
</symbol>
<symbol id="icon-wi-day-cloudy" viewBox="0 0 32 32">
<path d="M1.664 18.027c0 0.96 0.235 1.845 0.704 2.656s1.109 1.451 1.92 1.92c0.811 0.469 1.685 0.704 2.635 0.704h11.552c0.949 0 1.835-0.235 2.645-0.704s1.461-1.109 1.931-1.92c0.469-0.811 0.715-1.696 0.715-2.656 0-0.704-0.149-1.419-0.448-2.133 0.811-0.981 1.216-2.165 1.216-3.52 0-0.757-0.149-1.483-0.437-2.176s-0.693-1.28-1.195-1.781c-0.501-0.501-1.088-0.907-1.781-1.195-0.693-0.299-1.419-0.437-2.176-0.437-1.579 0-2.955 0.619-4.139 1.856-0.821-0.469-1.781-0.704-2.88-0.704-1.504 0-2.827 0.469-3.979 1.397s-1.899 2.123-2.219 3.573c-1.195 0.277-2.165 0.885-2.923 1.845s-1.141 2.048-1.141 3.275zM3.488 18.027c0-0.896 0.299-1.664 0.896-2.315s1.344-1.024 2.24-1.131l0.533-0.032c0.128 0 0.203-0.064 0.203-0.192l0.075-0.576c0.149-1.152 0.651-2.123 1.504-2.891 0.853-0.779 1.856-1.163 2.997-1.163 1.173 0 2.197 0.395 3.061 1.173 0.875 0.779 1.355 1.739 1.461 2.891l0.075 0.619c0.021 0.117 0.096 0.181 0.224 0.181h1.717c0.939 0 1.749 0.341 2.432 1.024s1.024 1.483 1.024 2.421c0 0.971-0.341 1.792-1.013 2.475s-1.493 1.024-2.432 1.024h-11.563c-0.939 0-1.739-0.341-2.421-1.035-0.672-0.693-1.013-1.515-1.013-2.475zM10.635 4.939c0 0.256 0.085 0.48 0.256 0.672l0.704 0.683c0.267 0.203 0.491 0.288 0.683 0.267 0.224 0 0.416-0.096 0.587-0.277s0.256-0.405 0.256-0.661c0-0.256-0.096-0.469-0.277-0.629l-0.629-0.704c-0.192-0.171-0.405-0.256-0.651-0.256-0.256 0-0.48 0.085-0.661 0.267-0.181 0.171-0.267 0.384-0.267 0.64zM16.331 9.664c0.736-0.715 1.611-1.067 2.613-1.067 1.056 0 1.952 0.363 2.688 1.099s1.109 1.621 1.109 2.677c0 0.661-0.181 1.323-0.544 1.963-1.035-1.024-2.272-1.536-3.723-1.536h-0.341c-0.267-1.163-0.864-2.208-1.803-3.136zM18.069 4.032c0 0.277 0.085 0.491 0.245 0.661s0.373 0.245 0.629 0.245c0.277 0 0.491-0.085 0.661-0.245 0.171-0.171 0.245-0.384 0.245-0.661v-2.187c0-0.256-0.085-0.459-0.256-0.629s-0.384-0.245-0.651-0.245c-0.256 0-0.459 0.085-0.629 0.245s-0.245 0.373-0.245 0.629v2.187zM23.957 6.475c0 0.277 0.075 0.491 0.235 0.661 0.224 0.171 0.448 0.256 0.661 0.256 0.192 0 0.405-0.085 0.629-0.256l1.525-1.525c0.171-0.192 0.256-0.416 0.256-0.683 0-0.256-0.085-0.469-0.256-0.64s-0.384-0.256-0.629-0.256c-0.256 0-0.459 0.085-0.619 0.256l-1.568 1.525c-0.16 0.203-0.235 0.416-0.235 0.661zM24.8 19.104c0 0.256 0.085 0.48 0.267 0.672l0.693 0.672c0.16 0.171 0.363 0.256 0.619 0.256s0.469-0.085 0.64-0.267c0.171-0.181 0.256-0.395 0.256-0.661 0-0.235-0.085-0.448-0.256-0.619l-0.693-0.693c-0.171-0.171-0.373-0.256-0.608-0.256-0.256 0-0.469 0.085-0.64 0.256-0.181 0.171-0.277 0.384-0.277 0.64zM26.368 12.373c0 0.245 0.096 0.448 0.277 0.619 0.171 0.171 0.395 0.256 0.651 0.256h2.176c0.245 0 0.448-0.085 0.619-0.245s0.245-0.373 0.245-0.629c0-0.256-0.085-0.469-0.245-0.64s-0.373-0.267-0.619-0.267h-2.176c-0.256 0-0.469 0.085-0.651 0.267-0.192 0.181-0.277 0.395-0.277 0.64z"></path>
</symbol>
<symbol id="icon-wi-day-cloudy-high" viewBox="0 0 32 32">
<path d="M4.213 13.92c0-0.992 0.309-1.867 0.928-2.645s1.397-1.28 2.336-1.493c0.277-1.173 0.875-2.133 1.813-2.891s2.005-1.131 3.211-1.131c1.173 0 2.219 0.373 3.147 1.109s1.525 1.675 1.792 2.827h0.277c1.173 0 2.176 0.416 3.008 1.237s1.248 1.824 1.248 2.997c0 0.011 0 0.021 0 0.043s0 0.043 0 0.064c0.8 0.853 1.195 1.867 1.195 3.040 0 0.811-0.203 1.557-0.608 2.24-0.405 0.693-0.949 1.237-1.632 1.632-0.683 0.405-1.429 0.597-2.229 0.597-1.024 0-1.941-0.32-2.731-0.949s-1.323-1.44-1.579-2.411h-6.080c-1.141-0.053-2.112-0.491-2.901-1.312s-1.195-1.813-1.195-2.955zM5.664 13.92c0 0.747 0.256 1.397 0.779 1.941s1.141 0.843 1.867 0.875h9.589c0.725-0.032 1.355-0.32 1.867-0.875 0.523-0.555 0.779-1.195 0.779-1.941 0-0.757-0.277-1.408-0.843-1.952-0.565-0.555-1.216-0.821-1.984-0.821h-1.376c-0.096 0-0.149-0.053-0.149-0.149l-0.075-0.501c-0.096-0.928-0.491-1.707-1.195-2.336s-1.515-0.949-2.432-0.949c-0.949 0-1.771 0.309-2.464 0.939s-1.067 1.408-1.163 2.336l-0.064 0.501c0 0.096-0.053 0.149-0.171 0.149h-0.427c-0.715 0.085-1.323 0.384-1.803 0.917-0.491 0.523-0.736 1.152-0.736 1.867zM12.277 23.531c-0.267-0.352-0.267-0.693 0-1.045l1.205-1.227c0.149-0.128 0.331-0.192 0.555-0.192 0.203 0 0.363 0.064 0.491 0.192s0.192 0.299 0.192 0.501c0 0.213-0.064 0.384-0.192 0.512l-1.216 1.259c-0.128 0.128-0.309 0.203-0.523 0.203s-0.384-0.075-0.512-0.203zM15.893 18.176c0.224 0.576 0.597 1.035 1.109 1.387s1.077 0.533 1.707 0.533c0.821 0 1.525-0.299 2.101-0.885 0.576-0.597 0.864-1.312 0.864-2.155 0-0.416-0.064-0.789-0.203-1.12-0.352 0.651-0.853 1.184-1.483 1.589-0.64 0.405-1.333 0.619-2.091 0.651h-2.005zM17.973 23.712c0-0.203 0.075-0.363 0.213-0.501 0.139-0.128 0.32-0.203 0.512-0.203s0.373 0.075 0.533 0.224c0.128 0.128 0.203 0.288 0.203 0.48v1.749c0 0.203-0.075 0.373-0.213 0.523s-0.32 0.224-0.512 0.224-0.373-0.075-0.512-0.224c-0.139-0.149-0.213-0.32-0.213-0.523v-1.749zM22.677 21.76c0-0.192 0.064-0.352 0.203-0.491 0.139-0.128 0.309-0.203 0.501-0.203 0.203 0 0.373 0.064 0.501 0.192l1.259 1.227c0.139 0.149 0.213 0.32 0.213 0.512 0 0.203-0.075 0.373-0.213 0.512s-0.32 0.213-0.523 0.213c-0.224 0-0.395-0.064-0.533-0.203l-1.205-1.259c-0.139-0.149-0.203-0.32-0.203-0.501zM22.677 12.363c0-0.203 0.064-0.373 0.203-0.501l1.205-1.259c0.149-0.128 0.32-0.203 0.533-0.203 0.203 0 0.373 0.064 0.533 0.203 0.139 0.16 0.213 0.341 0.213 0.544 0 0.192-0.075 0.352-0.213 0.512l-1.259 1.227c-0.128 0.128-0.299 0.203-0.501 0.203s-0.373-0.064-0.501-0.203c-0.149-0.149-0.213-0.32-0.213-0.523zM24.619 17.056c0-0.203 0.064-0.373 0.203-0.512 0.128-0.139 0.299-0.213 0.501-0.213h1.728c0.203 0 0.384 0.075 0.533 0.213s0.224 0.309 0.224 0.512c0 0.203-0.075 0.384-0.224 0.523s-0.32 0.213-0.533 0.213h-1.728c-0.203 0-0.363-0.075-0.501-0.213s-0.203-0.309-0.203-0.523z"></path>
</symbol>
<symbol id="icon-wi-day-rain-wind" viewBox="0 0 32 32">
<path d="M1.579 18.037c0 1.195 0.352 2.272 1.067 3.211s1.632 1.568 2.752 1.888c0.096 0.011 0.181-0.011 0.256-0.085l1.248-1.504c-0.949 0-1.771-0.341-2.453-1.035s-1.024-1.515-1.024-2.485c0-0.885 0.299-1.653 0.907-2.315 0.608-0.651 1.355-1.035 2.251-1.141l0.523-0.032c0.139 0 0.213-0.064 0.213-0.203l0.075-0.576c0.117-1.152 0.608-2.123 1.472-2.901s1.888-1.173 3.051-1.173c1.173 0 2.197 0.395 3.072 1.173s1.365 1.749 1.483 2.901l0.075 0.629c0.043 0.117 0.128 0.181 0.235 0.181h1.749c0.939 0 1.749 0.341 2.432 1.013s1.024 1.493 1.024 2.432c0 0.896-0.299 1.685-0.907 2.357s-1.333 1.045-2.208 1.12c-0.523 0.064-0.843 0.16-0.96 0.299l-2.336 3.008c-0.149 0.203-0.203 0.427-0.171 0.672s0.139 0.448 0.331 0.597c0.16 0.181 0.373 0.256 0.64 0.224s0.48-0.16 0.64-0.384l2.048-2.624c0.875-0.085 1.675-0.373 2.4-0.875 0.725-0.491 1.291-1.131 1.717-1.909 0.416-0.779 0.629-1.611 0.629-2.496 0-0.768-0.149-1.483-0.448-2.144 0.843-1.024 1.259-2.208 1.259-3.552 0-0.757-0.149-1.472-0.448-2.165s-0.704-1.291-1.205-1.792c-0.501-0.501-1.099-0.896-1.792-1.195s-1.419-0.448-2.176-0.448c-1.6 0-2.976 0.619-4.139 1.856-0.843-0.469-1.813-0.704-2.901-0.704-1.504 0-2.837 0.469-4 1.408s-1.899 2.133-2.208 3.595c-1.205 0.277-2.197 0.885-2.976 1.845s-1.195 2.101-1.195 3.328zM5.739 26.827c0.075 0.235 0.245 0.405 0.491 0.512 0.235 0.107 0.469 0.107 0.715 0.011s0.405-0.267 0.491-0.501c0.096-0.224 0.107-0.437 0-0.661-0.096-0.224-0.256-0.384-0.48-0.491-0.235-0.107-0.469-0.117-0.704-0.021s-0.395 0.256-0.48 0.491c-0.096 0.267-0.107 0.491-0.032 0.661zM7.669 23.904v0.117c0.021 0.235 0.128 0.427 0.32 0.587s0.405 0.235 0.672 0.213c0.256-0.021 0.459-0.128 0.608-0.309l2.325-3.008c0.149-0.192 0.224-0.416 0.203-0.672s-0.128-0.459-0.309-0.608c-0.192-0.16-0.416-0.224-0.672-0.203s-0.469 0.139-0.64 0.331l-2.293 2.987c-0.149 0.171-0.213 0.363-0.213 0.565zM8.213 29.088c0 0.064 0.021 0.171 0.064 0.32 0.096 0.235 0.256 0.395 0.491 0.491 0.117 0.043 0.245 0.075 0.384 0.075 0.096 0 0.213-0.021 0.331-0.053 0.224-0.085 0.384-0.245 0.469-0.469 0.107-0.235 0.117-0.469 0.021-0.715-0.085-0.245-0.245-0.405-0.48-0.491-0.235-0.107-0.469-0.107-0.715-0.011s-0.405 0.256-0.48 0.48c-0.053 0.117-0.085 0.245-0.085 0.373zM9.995 26.56v0.107c0.021 0.245 0.139 0.448 0.352 0.619 0.16 0.171 0.373 0.245 0.64 0.213s0.48-0.149 0.64-0.363l4.416-5.579c0.149-0.213 0.203-0.437 0.181-0.683s-0.139-0.448-0.331-0.629c-0.192-0.149-0.416-0.213-0.661-0.181s-0.448 0.139-0.597 0.331l-4.437 5.611c-0.139 0.16-0.203 0.352-0.203 0.555zM10.613 4.917c0 0.256 0.096 0.469 0.288 0.629l0.651 0.704c0.171 0.171 0.363 0.256 0.576 0.277 0.224 0.032 0.437-0.043 0.651-0.235s0.32-0.416 0.32-0.683c0-0.235-0.085-0.459-0.256-0.64l-0.683-0.693c-0.16-0.171-0.363-0.256-0.619-0.256s-0.48 0.085-0.661 0.256c-0.171 0.181-0.267 0.395-0.267 0.64zM13.76 27.776c0 0.128 0.021 0.235 0.075 0.331 0.096 0.235 0.256 0.395 0.48 0.491 0.117 0.053 0.235 0.085 0.373 0.085 0.064 0 0.171-0.021 0.32-0.064 0.235-0.096 0.405-0.256 0.491-0.491 0.107-0.235 0.117-0.469 0.021-0.704-0.085-0.235-0.245-0.395-0.48-0.48-0.235-0.107-0.469-0.117-0.715-0.021s-0.405 0.256-0.491 0.48c-0.053 0.117-0.075 0.245-0.075 0.373zM16.32 9.632c0.757-0.683 1.632-1.035 2.645-1.035 1.056 0 1.952 0.363 2.699 1.099s1.12 1.611 1.12 2.656c0 0.704-0.181 1.365-0.555 1.984-1.035-1.035-2.272-1.547-3.712-1.547h-0.363c-0.288-1.237-0.896-2.283-1.835-3.157zM18.059 4.021c0 0.245 0.085 0.459 0.267 0.629s0.395 0.256 0.64 0.256c0.256 0 0.48-0.085 0.661-0.256s0.267-0.384 0.267-0.629v-2.208c0-0.245-0.096-0.459-0.277-0.64s-0.405-0.267-0.651-0.267c-0.245 0-0.459 0.085-0.64 0.267s-0.267 0.395-0.267 0.64v2.208zM24 6.453c0 0.256 0.075 0.469 0.235 0.64 0.192 0.181 0.405 0.267 0.651 0.277 0.245 0 0.448-0.085 0.608-0.277l1.6-1.547c0.171-0.171 0.256-0.395 0.256-0.651s-0.096-0.469-0.277-0.651c-0.181-0.181-0.395-0.277-0.64-0.277-0.235 0-0.448 0.085-0.64 0.267l-1.547 1.568c-0.16 0.181-0.245 0.395-0.245 0.651zM24.832 19.147c0 0.256 0.085 0.469 0.256 0.64l0.704 0.672c0.171 0.171 0.363 0.267 0.576 0.288h0.064c0.192 0 0.405-0.096 0.661-0.288 0.171-0.171 0.256-0.384 0.256-0.619 0-0.256-0.085-0.48-0.256-0.672l-0.704-0.661c-0.171-0.181-0.384-0.267-0.629-0.267-0.256 0-0.48 0.085-0.661 0.267-0.171 0.171-0.267 0.395-0.267 0.64zM26.432 12.352c0 0.256 0.085 0.469 0.256 0.64 0.171 0.192 0.384 0.288 0.64 0.288h2.176c0.256 0 0.469-0.096 0.651-0.277s0.267-0.405 0.267-0.651c0-0.245-0.085-0.459-0.267-0.629s-0.395-0.256-0.651-0.256h-2.176c-0.256 0-0.469 0.085-0.64 0.256s-0.256 0.384-0.256 0.629z"></path>
</symbol>
<symbol id="icon-wi-day-sleet" viewBox="0 0 32 32">
<path d="M1.589 18.048v0c0-1.248 0.384-2.336 1.152-3.296s1.749-1.579 2.923-1.856c0.331-1.461 1.077-2.656 2.24-3.605 1.173-0.939 2.507-1.408 4.021-1.408 1.056 0 2.027 0.235 2.901 0.704 0.533-0.565 1.163-1.013 1.877-1.333s1.461-0.48 2.229-0.48c1.013 0 1.952 0.256 2.816 0.757s1.547 1.184 2.048 2.048c0.501 0.864 0.757 1.803 0.757 2.816 0 1.312-0.405 2.485-1.216 3.509 0.309 0.651 0.459 1.365 0.459 2.155 0 0.939-0.224 1.813-0.683 2.613-0.448 0.8-1.067 1.451-1.856 1.931-0.779 0.491-1.643 0.747-2.581 0.768-0.139 0-0.213-0.064-0.213-0.192v-1.429c0-0.128 0.075-0.192 0.213-0.192 0.917-0.043 1.685-0.416 2.325-1.099s0.96-1.493 0.96-2.411c0-0.949-0.341-1.76-1.035-2.443s-1.504-1.024-2.464-1.024h-1.717c-0.128 0-0.192-0.064-0.192-0.181l-0.085-0.629c-0.117-1.152-0.619-2.123-1.493-2.901s-1.899-1.173-3.051-1.173c-1.173 0-2.187 0.395-3.051 1.173s-1.355 1.749-1.461 2.901l-0.075 0.629c-0.032 0.096-0.117 0.139-0.235 0.139l-0.544 0.043c-0.896 0.107-1.653 0.48-2.251 1.131s-0.896 1.429-0.896 2.325v0.053h0.032c0.011 1.045 0.405 1.899 1.184 2.592 0.235 0.203 0.501 0.384 0.789 0.523v0.021c0.437 0.203 0.875 0.309 1.291 0.331 0.117 0 0.181 0.064 0.181 0.181v1.429c0 0.117-0.064 0.181-0.181 0.181-0.555-0.032-1.077-0.139-1.579-0.32v0.021c-0.885-0.309-1.643-0.821-2.251-1.525s-1.013-1.536-1.184-2.464v-0.043c-0.011-0.011-0.011-0.021-0.011-0.032-0.075-0.277-0.096-0.587-0.096-0.939zM7.456 25.696c0-0.032 0.011-0.075 0.021-0.139 0.011-0.053 0.021-0.096 0.021-0.128l0.096-0.629c0.075-0.256 0.213-0.437 0.437-0.565 0.213-0.128 0.459-0.149 0.725-0.085 0.245 0.075 0.416 0.213 0.544 0.437 0.117 0.213 0.139 0.437 0.075 0.661l-0.149 0.64c-0.107 0.469-0.373 0.704-0.811 0.704-0.032 0-0.085 0-0.16-0.011s-0.117-0.011-0.139-0.011c-0.224-0.064-0.384-0.181-0.491-0.352-0.117-0.16-0.171-0.341-0.171-0.523zM8.245 22.56c0-0.256 0.085-0.459 0.245-0.629 0.171-0.171 0.373-0.245 0.629-0.245s0.459 0.085 0.629 0.245c0.171 0.171 0.245 0.373 0.245 0.629 0 0.245-0.085 0.448-0.245 0.619s-0.373 0.245-0.629 0.245c-0.245 0-0.448-0.085-0.608-0.256-0.181-0.171-0.267-0.373-0.267-0.608zM9.995 28.939c0-0.043 0.011-0.117 0.043-0.245l0.139-0.619c0.075-0.245 0.224-0.427 0.437-0.544 0.224-0.128 0.448-0.149 0.672-0.075 0.245 0.043 0.437 0.181 0.565 0.395s0.16 0.459 0.085 0.725l-0.139 0.629c-0.107 0.437-0.395 0.651-0.853 0.651-0.053 0-0.139-0.011-0.256-0.043-0.235-0.064-0.405-0.181-0.523-0.352s-0.171-0.341-0.171-0.523zM10.56 4.928c0-0.256 0.085-0.469 0.267-0.64s0.405-0.256 0.672-0.256c0.256 0 0.469 0.085 0.64 0.256l0.672 0.704c0.181 0.181 0.267 0.395 0.267 0.64 0 0.256-0.107 0.491-0.32 0.683s-0.427 0.277-0.651 0.245c-0.224-0.021-0.416-0.117-0.587-0.288l-0.693-0.704c-0.171-0.181-0.267-0.395-0.267-0.64zM10.837 25.845c0-0.245 0.085-0.459 0.245-0.619 0.171-0.171 0.373-0.245 0.629-0.245s0.459 0.085 0.629 0.245c0.171 0.171 0.245 0.373 0.245 0.619 0 0.256-0.085 0.459-0.245 0.629-0.171 0.171-0.373 0.245-0.629 0.245-0.235 0-0.437-0.085-0.619-0.267-0.171-0.171-0.256-0.373-0.256-0.608zM11.499 23.424c0-0.096 0.011-0.192 0.032-0.277l0.245-0.96c0.075-0.245 0.224-0.437 0.437-0.565 0.224-0.128 0.448-0.16 0.683-0.085 0.256 0.075 0.437 0.213 0.565 0.427s0.149 0.427 0.075 0.661l-0.277 0.96c-0.085 0.288-0.235 0.491-0.437 0.608s-0.437 0.128-0.683 0.064c-0.213-0.043-0.373-0.149-0.48-0.32-0.128-0.192-0.181-0.352-0.16-0.512zM14.443 25.707c0-0.032 0-0.075 0.011-0.139s0.011-0.096 0.011-0.117l0.096-0.629c0.075-0.256 0.213-0.437 0.437-0.565 0.213-0.128 0.459-0.149 0.725-0.085 0.245 0.075 0.427 0.224 0.544 0.437 0.128 0.224 0.149 0.448 0.075 0.672l-0.149 0.64c-0.107 0.459-0.373 0.693-0.811 0.693-0.032 0-0.085 0-0.16-0.011s-0.117-0.011-0.139-0.011c-0.213-0.064-0.373-0.181-0.48-0.352-0.107-0.181-0.16-0.352-0.16-0.533zM15.232 22.571c0-0.256 0.085-0.459 0.245-0.629 0.171-0.171 0.373-0.245 0.629-0.245s0.459 0.085 0.629 0.245c0.171 0.171 0.245 0.373 0.245 0.629 0 0.245-0.085 0.459-0.245 0.619-0.171 0.171-0.373 0.245-0.629 0.245-0.245 0-0.459-0.085-0.619-0.267-0.171-0.16-0.256-0.363-0.256-0.597zM16.331 9.653c0.896 0.811 1.493 1.856 1.813 3.125h0.331c1.472 0 2.72 0.512 3.755 1.547 0.331-0.587 0.501-1.237 0.501-1.941 0-1.045-0.373-1.931-1.109-2.667-0.736-0.725-1.632-1.099-2.677-1.099-1.024 0-1.899 0.341-2.613 1.035zM18.037 4.032v-2.187c0-0.256 0.085-0.469 0.267-0.651s0.395-0.277 0.64-0.277c0.256 0 0.469 0.085 0.64 0.267s0.256 0.405 0.256 0.661v2.187c0 0.256-0.085 0.48-0.256 0.661s-0.384 0.267-0.64 0.267c-0.245 0-0.459-0.096-0.64-0.277s-0.267-0.395-0.267-0.651zM23.989 6.475c0-0.256 0.085-0.469 0.245-0.64l1.536-1.547c0.16-0.181 0.363-0.267 0.619-0.267s0.469 0.085 0.64 0.267c0.192 0.171 0.277 0.384 0.277 0.64s-0.096 0.469-0.277 0.64l-1.536 1.557c-0.203 0.203-0.427 0.288-0.672 0.277-0.245-0.021-0.437-0.107-0.587-0.277-0.171-0.171-0.245-0.384-0.245-0.651zM24.811 19.179c0-0.256 0.085-0.469 0.267-0.651s0.395-0.267 0.64-0.267c0.245 0 0.459 0.096 0.651 0.277l0.661 0.672c0.192 0.181 0.277 0.405 0.277 0.651 0 0.256-0.096 0.469-0.277 0.64-0.149 0.181-0.341 0.277-0.576 0.277l-0.021-0.021c-0.256 0-0.469-0.085-0.661-0.256l-0.693-0.683c-0.171-0.181-0.267-0.395-0.267-0.64zM26.379 12.384c0-0.256 0.085-0.469 0.267-0.64s0.395-0.256 0.651-0.256h2.197c0.256 0 0.48 0.085 0.651 0.256s0.267 0.384 0.267 0.64c0 0.256-0.085 0.469-0.267 0.651s-0.395 0.267-0.651 0.267h-2.197c-0.256 0-0.469-0.096-0.64-0.288-0.192-0.16-0.277-0.373-0.277-0.629z"></path>
</symbol>
<symbol id="icon-wi-day-sleet-storm" viewBox="0 0 32 32">
<path d="M1.589 18.005c0 1.195 0.352 2.261 1.067 3.2s1.632 1.568 2.752 1.877l-0.704 1.813c-0.053 0.149 0 0.235 0.149 0.235h2.272l-1.525 4.491h0.309l4.651-6.037c0.043-0.043 0.043-0.096 0.021-0.149s-0.075-0.075-0.149-0.075h-2.336l2.656-4.96c0.075-0.149 0.032-0.235-0.149-0.235h-3.157c-0.096 0-0.181 0.053-0.245 0.16l-1.141 3.072c-0.768-0.192-1.408-0.597-1.899-1.237-0.501-0.629-0.747-1.344-0.747-2.155 0-0.896 0.299-1.675 0.896-2.325s1.355-1.035 2.251-1.141l0.544-0.032c0.128 0 0.203-0.053 0.235-0.149l0.075-0.629c0.117-1.152 0.597-2.123 1.461-2.901s1.877-1.173 3.051-1.173c1.163 0 2.176 0.395 3.051 1.173s1.376 1.749 1.493 2.901l0.085 0.629c0 0.117 0.064 0.181 0.192 0.181h1.717c0.949 0 1.771 0.341 2.464 1.024s1.035 1.493 1.035 2.443c0 0.928-0.32 1.728-0.96 2.411s-1.408 1.045-2.325 1.099c-0.139 0-0.213 0.064-0.213 0.192v1.429c0 0.117 0.075 0.181 0.213 0.181 0.939-0.021 1.803-0.277 2.581-0.768 0.779-0.48 1.397-1.131 1.856-1.931s0.683-1.675 0.683-2.613c0-0.779-0.149-1.493-0.459-2.155 0.811-1.024 1.216-2.197 1.216-3.509 0-1.013-0.256-1.952-0.757-2.816s-1.184-1.547-2.048-2.048c-0.864-0.501-1.803-0.757-2.816-0.757-0.768 0-1.515 0.16-2.24 0.48s-1.344 0.768-1.877 1.333c-0.864-0.459-1.824-0.693-2.901-0.693-1.515 0-2.859 0.469-4.021 1.408s-1.92 2.133-2.24 3.595c-1.184 0.277-2.155 0.896-2.923 1.856-0.757 0.981-1.141 2.080-1.141 3.307zM9.995 28.907c0 0.181 0.053 0.352 0.171 0.523s0.288 0.288 0.523 0.352c0.096 0.021 0.181 0.032 0.256 0.032 0.459 0 0.747-0.213 0.853-0.651l0.139-0.629c0.064-0.277 0.032-0.512-0.085-0.725-0.128-0.213-0.309-0.341-0.565-0.395-0.224-0.075-0.448-0.053-0.672 0.075s-0.363 0.309-0.437 0.544l-0.139 0.629c-0.032 0.128-0.043 0.213-0.043 0.245zM10.56 4.896c0 0.245 0.085 0.459 0.267 0.64l0.693 0.704c0.171 0.171 0.363 0.256 0.587 0.277 0.224 0.032 0.437-0.043 0.651-0.245 0.213-0.192 0.32-0.416 0.32-0.683 0-0.245-0.085-0.459-0.267-0.64l-0.672-0.704c-0.171-0.171-0.384-0.256-0.64-0.256-0.267 0-0.491 0.085-0.672 0.256-0.171 0.192-0.267 0.405-0.267 0.651zM10.837 25.813c0 0.245 0.085 0.448 0.256 0.619s0.384 0.256 0.619 0.256c0.256 0 0.459-0.085 0.629-0.245 0.171-0.171 0.245-0.373 0.245-0.629 0-0.245-0.085-0.448-0.245-0.619-0.171-0.171-0.373-0.245-0.629-0.245s-0.459 0.085-0.629 0.245c-0.16 0.16-0.245 0.373-0.245 0.619zM11.499 23.392c-0.011 0.16 0.032 0.331 0.149 0.501 0.107 0.171 0.267 0.277 0.48 0.32 0.245 0.064 0.469 0.043 0.683-0.064s0.352-0.309 0.437-0.597l0.277-0.96c0.075-0.235 0.053-0.459-0.075-0.672s-0.309-0.352-0.565-0.427c-0.235-0.075-0.459-0.043-0.683 0.085s-0.363 0.32-0.437 0.565l-0.245 0.96c-0.011 0.085-0.021 0.181-0.021 0.288zM14.443 25.685c0 0.181 0.053 0.352 0.16 0.512s0.267 0.277 0.491 0.341c0.032 0 0.085 0.011 0.149 0.021s0.117 0.021 0.149 0.021c0.437 0 0.704-0.235 0.811-0.704l0.149-0.64c0.075-0.224 0.053-0.448-0.075-0.672s-0.309-0.363-0.544-0.437c-0.267-0.064-0.512-0.043-0.725 0.085s-0.363 0.309-0.437 0.565l-0.096 0.629c0 0.011 0 0.053-0.011 0.117-0.011 0.075-0.021 0.117-0.021 0.16zM15.232 22.528c0 0.245 0.085 0.448 0.256 0.608 0.16 0.171 0.363 0.256 0.619 0.256s0.459-0.085 0.629-0.245c0.171-0.171 0.245-0.373 0.245-0.619 0-0.256-0.085-0.459-0.245-0.629-0.171-0.171-0.373-0.245-0.629-0.245s-0.459 0.085-0.629 0.245c-0.16 0.171-0.245 0.373-0.245 0.629zM16.331 9.621c0.715-0.683 1.579-1.035 2.613-1.035 1.045 0 1.941 0.363 2.677 1.099 0.736 0.725 1.109 1.621 1.109 2.667 0 0.704-0.171 1.344-0.501 1.931-1.024-1.024-2.272-1.536-3.755-1.536h-0.331c-0.309-1.269-0.917-2.315-1.813-3.125zM18.037 4c0 0.256 0.085 0.469 0.267 0.651s0.395 0.267 0.64 0.267c0.256 0 0.469-0.085 0.64-0.267s0.256-0.395 0.256-0.651v-2.197c0-0.256-0.085-0.48-0.256-0.651-0.171-0.181-0.384-0.277-0.64-0.277s-0.469 0.085-0.64 0.267-0.267 0.395-0.267 0.651v2.208zM23.989 6.443c0 0.256 0.085 0.469 0.245 0.64 0.149 0.171 0.341 0.256 0.587 0.277s0.469-0.075 0.672-0.277l1.536-1.536c0.192-0.171 0.277-0.384 0.277-0.64s-0.096-0.469-0.277-0.64c-0.171-0.192-0.384-0.277-0.64-0.277-0.245 0-0.448 0.096-0.619 0.277l-1.536 1.536c-0.171 0.16-0.245 0.373-0.245 0.64zM24.811 19.147c0 0.245 0.085 0.459 0.267 0.64l0.693 0.672c0.192 0.181 0.416 0.267 0.661 0.267l0.021 0.021c0.235 0 0.427-0.096 0.576-0.288 0.192-0.171 0.277-0.384 0.277-0.64 0-0.245-0.096-0.459-0.277-0.651l-0.661-0.661c-0.192-0.192-0.405-0.288-0.651-0.288-0.256 0-0.469 0.096-0.64 0.277s-0.267 0.405-0.267 0.651zM26.379 12.352c0 0.256 0.096 0.469 0.277 0.629 0.171 0.192 0.384 0.277 0.64 0.277h2.197c0.256 0 0.469-0.085 0.651-0.267s0.267-0.395 0.267-0.64-0.085-0.469-0.267-0.64c-0.181-0.171-0.395-0.256-0.651-0.256h-2.197c-0.256 0-0.48 0.085-0.651 0.256-0.181 0.171-0.267 0.384-0.267 0.64z"></path>
</symbol>
<symbol id="icon-wi-day-sunny" viewBox="0 0 32 32">
<path d="M4.661 15.595c0-0.256 0.085-0.48 0.267-0.661 0.181-0.171 0.405-0.256 0.64-0.256h2.176c0.245 0 0.448 0.085 0.619 0.267 0.16 0.181 0.245 0.395 0.245 0.651s-0.075 0.469-0.235 0.651c-0.16 0.181-0.373 0.267-0.619 0.267h-2.176c-0.245 0-0.459-0.085-0.64-0.267s-0.277-0.395-0.277-0.651zM7.712 22.987c0-0.245 0.085-0.459 0.245-0.651l1.568-1.525c0.16-0.171 0.373-0.245 0.629-0.245s0.469 0.085 0.64 0.245 0.256 0.363 0.256 0.608c0 0.256-0.085 0.491-0.256 0.683l-1.515 1.515c-0.437 0.341-0.875 0.341-1.312 0-0.171-0.171-0.256-0.384-0.256-0.629zM7.712 8.224c0-0.245 0.085-0.459 0.245-0.651 0.213-0.181 0.437-0.267 0.683-0.267 0.235 0 0.448 0.085 0.629 0.256l1.525 1.568c0.171 0.16 0.256 0.373 0.256 0.629s-0.085 0.469-0.256 0.64-0.384 0.256-0.64 0.256c-0.256 0-0.469-0.085-0.629-0.256l-1.557-1.525c-0.171-0.171-0.256-0.395-0.256-0.651zM10.432 15.595c0-0.992 0.245-1.92 0.747-2.773s1.173-1.536 2.037-2.037 1.781-0.747 2.773-0.747c0.747 0 1.461 0.149 2.155 0.448 0.683 0.299 1.28 0.693 1.771 1.195 0.501 0.501 0.896 1.088 1.184 1.771s0.437 1.408 0.437 2.155c0 1.003-0.245 1.931-0.747 2.784s-1.173 1.525-2.027 2.027c-0.853 0.501-1.781 0.747-2.784 0.747s-1.931-0.245-2.784-0.747c-0.853-0.501-1.525-1.173-2.027-2.027-0.48-0.864-0.736-1.792-0.736-2.795zM12.245 15.595c0 1.045 0.363 1.931 1.099 2.667 0.725 0.736 1.611 1.109 2.656 1.109s1.931-0.373 2.667-1.109 1.109-1.621 1.109-2.667c0-1.024-0.373-1.899-1.109-2.635-0.736-0.725-1.621-1.088-2.667-1.088-1.035 0-1.92 0.363-2.645 1.088-0.747 0.736-1.109 1.611-1.109 2.635zM15.083 23.893c0-0.256 0.085-0.469 0.267-0.64s0.395-0.256 0.64-0.256c0.256 0 0.48 0.085 0.651 0.256s0.256 0.384 0.256 0.64v2.123c0 0.256-0.085 0.48-0.267 0.661s-0.395 0.267-0.64 0.267-0.469-0.085-0.64-0.267c-0.181-0.181-0.267-0.405-0.267-0.661v-2.123zM15.083 7.36v-2.176c0-0.245 0.085-0.459 0.267-0.64s0.395-0.277 0.651-0.277 0.459 0.085 0.64 0.267c0.181 0.181 0.267 0.395 0.267 0.64v2.187c0 0.245-0.085 0.448-0.267 0.619s-0.395 0.245-0.64 0.245-0.469-0.085-0.64-0.245-0.277-0.373-0.277-0.619zM20.971 21.419c0-0.245 0.085-0.448 0.245-0.597 0.16-0.171 0.363-0.245 0.597-0.245 0.256 0 0.469 0.085 0.64 0.245l1.557 1.525c0.171 0.181 0.256 0.405 0.256 0.651s-0.085 0.459-0.256 0.629c-0.427 0.331-0.853 0.331-1.28 0l-1.515-1.515c-0.16-0.192-0.245-0.416-0.245-0.693zM20.971 9.771c0-0.267 0.085-0.48 0.245-0.629l1.515-1.568c0.181-0.171 0.395-0.256 0.629-0.256 0.256 0 0.469 0.085 0.64 0.267 0.181 0.181 0.267 0.395 0.267 0.64 0 0.267-0.085 0.491-0.256 0.661l-1.557 1.525c-0.192 0.171-0.405 0.256-0.64 0.256-0.245 0-0.437-0.085-0.597-0.256s-0.245-0.384-0.245-0.64zM23.381 15.595c0-0.256 0.085-0.469 0.256-0.661 0.171-0.171 0.373-0.256 0.608-0.256h2.155c0.245 0 0.459 0.096 0.64 0.277s0.277 0.395 0.277 0.64-0.096 0.459-0.277 0.64c-0.181 0.181-0.395 0.267-0.64 0.267h-2.155c-0.245 0-0.459-0.085-0.619-0.267s-0.245-0.384-0.245-0.64z"></path>
</symbol>
<symbol id="icon-wi-day-sunny-overcast" viewBox="0 0 32 32">
<path d="M3.296 14.325c0 0.288 0.096 0.523 0.299 0.715s0.459 0.277 0.768 0.277h1.803c0.288 0 0.533-0.096 0.736-0.288s0.309-0.427 0.309-0.704c0-0.309-0.096-0.565-0.299-0.757s-0.448-0.299-0.736-0.299h-1.813c-0.309 0-0.565 0.096-0.768 0.299-0.203 0.181-0.299 0.437-0.299 0.757zM5.184 20.917c0 1.035 0.373 1.931 1.131 2.688s1.643 1.131 2.677 1.131h7.317c1.035 0 1.92-0.373 2.656-1.12s1.109-1.643 1.109-2.699c0-0.512-0.075-0.949-0.224-1.312 0.885-0.565 1.589-1.323 2.101-2.261s0.779-1.952 0.779-3.029c0-0.864-0.171-1.696-0.512-2.485s-0.8-1.472-1.365-2.037c-0.565-0.565-1.248-1.024-2.037-1.365s-1.611-0.512-2.475-0.512c-1.163 0-2.24 0.288-3.221 0.864s-1.76 1.355-2.325 2.325c-0.565 0.981-0.843 2.048-0.843 3.211v0.363c-1.067 0.608-1.771 1.493-2.112 2.656-0.811 0.256-1.451 0.704-1.931 1.355s-0.725 1.397-0.725 2.229zM6.848 5.813c0 0.299 0.096 0.544 0.277 0.715l1.717 1.803c0.501 0.384 1.003 0.384 1.504 0 0.203-0.203 0.299-0.448 0.299-0.747 0-0.288-0.096-0.533-0.299-0.747l-1.76-1.76c-0.224-0.203-0.48-0.309-0.747-0.309-0.299 0-0.544 0.096-0.725 0.299s-0.267 0.448-0.267 0.747zM7.296 20.917c0-0.448 0.139-0.832 0.427-1.152s0.651-0.501 1.088-0.544l0.661-0.085c0.139 0 0.213-0.085 0.213-0.245l0.096-0.597c0.075-0.619 0.331-1.131 0.779-1.536 0.448-0.416 0.971-0.619 1.579-0.619 0.619 0 1.163 0.203 1.611 0.619 0.459 0.416 0.725 0.928 0.8 1.536l0.085 0.693c0.064 0.16 0.149 0.245 0.256 0.245h1.408c0.459 0 0.853 0.171 1.195 0.501s0.501 0.725 0.501 1.195c0 0.48-0.171 0.885-0.501 1.227s-0.736 0.512-1.195 0.512h-7.307c-0.48 0-0.885-0.171-1.205-0.512-0.331-0.341-0.491-0.757-0.491-1.237zM12.011 14.101c0.075-1.163 0.523-2.144 1.355-2.944 0.821-0.789 1.824-1.195 2.976-1.195 1.184 0 2.197 0.427 3.029 1.269s1.248 1.877 1.248 3.083c0 0.747-0.181 1.44-0.544 2.080s-0.853 1.152-1.472 1.547c-0.629-0.523-1.355-0.779-2.165-0.779-0.309-0.939-0.864-1.675-1.643-2.229s-1.664-0.832-2.645-0.832h-0.139zM15.307 4.768c0 0.288 0.107 0.544 0.309 0.747s0.448 0.309 0.736 0.309c0.299 0 0.544-0.107 0.747-0.309s0.309-0.448 0.309-0.747v-2.496c0-0.277-0.107-0.512-0.309-0.704s-0.448-0.288-0.747-0.288c-0.288 0-0.533 0.096-0.736 0.288s-0.309 0.427-0.309 0.704v2.496zM22.048 21.013c0 0.288 0.096 0.533 0.288 0.747l1.749 1.728c0.448 0.448 0.949 0.448 1.504 0 0.192-0.181 0.277-0.416 0.277-0.725 0-0.288-0.096-0.523-0.277-0.715l-1.803-1.781c-0.192-0.181-0.437-0.267-0.725-0.267-0.299 0-0.533 0.096-0.725 0.288s-0.288 0.437-0.288 0.725zM22.048 7.563c0 0.299 0.096 0.555 0.288 0.768 0.192 0.192 0.437 0.288 0.725 0.288s0.533-0.096 0.725-0.288l1.803-1.803c0.192-0.181 0.277-0.416 0.277-0.715s-0.107-0.544-0.309-0.736-0.448-0.299-0.747-0.299c-0.277 0-0.523 0.107-0.725 0.309l-1.749 1.739c-0.192 0.192-0.288 0.437-0.288 0.736zM24.8 14.325c0 0.288 0.096 0.523 0.299 0.715s0.459 0.277 0.768 0.277h1.803c0.288 0 0.533-0.096 0.736-0.288s0.309-0.427 0.309-0.704c0-0.309-0.096-0.565-0.299-0.757s-0.448-0.299-0.736-0.299h-1.803c-0.309 0-0.565 0.096-0.768 0.299-0.203 0.181-0.309 0.437-0.309 0.757z"></path>
</symbol>
<symbol id="icon-wi-hot" viewBox="0 0 32 32">
<path d="M4.416 15.744c0-0.256 0.096-0.469 0.288-0.651 0.181-0.181 0.405-0.267 0.661-0.267h2.197c0.256 0 0.469 0.085 0.64 0.267 0.181 0.181 0.267 0.395 0.267 0.651 0 0.267-0.085 0.491-0.267 0.672s-0.395 0.267-0.64 0.267h-2.197c-0.267 0-0.491-0.085-0.672-0.267-0.192-0.181-0.277-0.405-0.277-0.672zM7.531 8.256c0-0.245 0.085-0.469 0.256-0.661 0.213-0.171 0.437-0.267 0.704-0.267 0.224 0 0.437 0.085 0.629 0.267l1.547 1.579c0.181 0.171 0.267 0.384 0.267 0.64s-0.085 0.469-0.267 0.64c-0.181 0.181-0.384 0.267-0.64 0.267-0.277 0-0.491-0.085-0.651-0.267l-1.6-1.536c-0.149-0.181-0.245-0.405-0.245-0.661zM10.315 15.744c0-0.757 0.149-1.483 0.459-2.176 0.299-0.693 0.715-1.301 1.216-1.803 0.512-0.501 1.12-0.907 1.813-1.205s1.429-0.459 2.197-0.459c1.024 0 1.963 0.256 2.837 0.768s1.568 1.195 2.069 2.069c0.501 0.864 0.757 1.803 0.757 2.805 0 0.16-0.011 0.309-0.032 0.448-0.299-0.181-0.64-0.267-1.035-0.267-0.256 0-0.512 0.053-0.768 0.16 0.011-0.075 0.011-0.192 0.011-0.341 0-1.045-0.373-1.931-1.131-2.667s-1.664-1.109-2.72-1.109c-1.056 0-1.952 0.373-2.709 1.109s-1.12 1.621-1.12 2.667v0.192c-0.309 0.021-0.608 0.107-0.896 0.267-0.011 0.011-0.043 0.032-0.107 0.075s-0.128 0.096-0.203 0.149-0.149 0.117-0.245 0.203-0.192 0.171-0.277 0.256c-0.085-0.341-0.117-0.725-0.117-1.141zM10.347 19.637v-0.16c-0.011-0.096 0-0.213 0.021-0.352 0.053-0.384 0.203-0.747 0.448-1.088 0.139-0.171 0.235-0.288 0.288-0.331 0.011-0.021 0.021-0.043 0.043-0.064l0.043-0.043c0.032-0.011 0.075-0.053 0.128-0.107 0.021-0.021 0.053-0.053 0.085-0.085s0.064-0.043 0.075-0.064c0.053-0.053 0.107-0.085 0.149-0.107l0.181-0.117c0.149-0.096 0.331-0.149 0.533-0.149h0.032c0.107 0 0.203 0.011 0.277 0.032 0.032 0.011 0.075 0.032 0.139 0.075v0.011c0.149 0.064 0.277 0.171 0.363 0.309s0.139 0.288 0.139 0.448c0 0.181-0.053 0.331-0.149 0.448-0.064 0.096-0.149 0.181-0.235 0.245-0.021 0.011-0.043 0.021-0.064 0.032s-0.043 0.021-0.043 0.021l-0.064 0.043c-0.043 0.032-0.075 0.064-0.107 0.085s-0.064 0.064-0.117 0.117c-0.043 0.053-0.085 0.096-0.117 0.149-0.032 0.043-0.064 0.107-0.096 0.16-0.032 0.064-0.053 0.128-0.053 0.181v0.16c0.043 0.16 0.085 0.288 0.117 0.384 0.075 0.149 0.192 0.299 0.363 0.469 0.011 0.021 0.096 0.107 0.256 0.267 0.917 0.832 1.355 1.728 1.291 2.667-0.021 0.32-0.096 0.629-0.224 0.928s-0.277 0.544-0.459 0.747c-0.171 0.203-0.309 0.352-0.416 0.459-0.107 0.096-0.192 0.171-0.267 0.224-0.011 0.011-0.032 0.021-0.064 0.043s-0.064 0.043-0.075 0.043c-0.085 0.043-0.16 0.064-0.235 0.075-0.096 0.011-0.16 0.021-0.213 0.021-0.32 0-0.576-0.107-0.757-0.32-0.149-0.181-0.213-0.395-0.192-0.629s0.139-0.427 0.352-0.565l0.011-0.032c0.011-0.011 0.032-0.032 0.053-0.043 0.021-0.021 0.043-0.043 0.075-0.064s0.064-0.053 0.085-0.085c0.032-0.032 0.064-0.075 0.085-0.107 0.032-0.043 0.064-0.085 0.085-0.128 0.032-0.043 0.064-0.096 0.085-0.149 0.032-0.053 0.053-0.107 0.075-0.16s0.032-0.107 0.053-0.171c0.011-0.064 0.021-0.128 0.021-0.181 0.021-0.213-0.032-0.427-0.16-0.64-0.053-0.117-0.128-0.235-0.235-0.352-0.075-0.085-0.128-0.139-0.16-0.171-0.096-0.117-0.149-0.181-0.16-0.192-0.021-0.011-0.043-0.032-0.075-0.064s-0.053-0.043-0.064-0.053c-0.16-0.149-0.277-0.277-0.363-0.384-0.128-0.171-0.224-0.277-0.256-0.341-0.203-0.277-0.341-0.555-0.416-0.832-0.043-0.149-0.075-0.267-0.085-0.341 0-0.021-0.011-0.053-0.021-0.085s-0.011-0.053-0.011-0.085zM14.485 19.285c0-0.064 0-0.107 0.011-0.149 0.021-0.235 0.096-0.459 0.213-0.683s0.235-0.416 0.373-0.565c0.139-0.149 0.267-0.288 0.405-0.405s0.245-0.203 0.331-0.267l0.128-0.075c0.16-0.096 0.341-0.149 0.533-0.149 0.117 0 0.224 0.011 0.32 0.032 0.011 0 0.021 0.011 0.053 0.021 0.032 0.021 0.053 0.032 0.064 0.043 0.011 0 0.021 0 0.032 0.011 0.011 0 0.032 0.021 0.075 0.053 0.213 0.128 0.341 0.32 0.405 0.576 0 0.021 0 0.043 0 0.075 0 0.021 0 0.043 0 0.053 0 0.032-0.011 0.075-0.021 0.128s-0.021 0.085-0.021 0.096c-0.075 0.245-0.224 0.416-0.448 0.533-0.352 0.235-0.544 0.48-0.565 0.736-0.011 0.085-0.011 0.16 0 0.235 0.021 0.128 0.085 0.267 0.181 0.416 0.117 0.171 0.203 0.288 0.256 0.341 0.171 0.171 0.267 0.267 0.299 0.288 0.128 0.117 0.299 0.299 0.501 0.544 0.576 0.693 0.843 1.408 0.789 2.133-0.021 0.32-0.096 0.629-0.224 0.928s-0.277 0.544-0.459 0.747c-0.171 0.192-0.32 0.352-0.427 0.459-0.117 0.107-0.203 0.181-0.267 0.224l-0.128 0.085c-0.117 0.043-0.181 0.064-0.224 0.075-0.117 0.011-0.192 0.021-0.213 0.021h-0.032c-0.085 0-0.149-0.011-0.203-0.021-0.021 0-0.053 0-0.085-0.011s-0.064-0.011-0.075-0.011c-0.011 0-0.021 0-0.032-0.011s-0.021-0.011-0.043-0.021c-0.011-0.011-0.021-0.011-0.032-0.011-0.16-0.117-0.256-0.181-0.277-0.224-0.171-0.192-0.235-0.405-0.203-0.64s0.149-0.416 0.363-0.565l0.032-0.043c0.021-0.021 0.053-0.053 0.096-0.085l0.128-0.128 0.139-0.171 0.128-0.203 0.096-0.235 0.043-0.256c0.011-0.427-0.235-0.875-0.736-1.355-0.203-0.181-0.352-0.331-0.469-0.459-0.587-0.736-0.853-1.429-0.811-2.112zM15.061 7.381v-2.208c0-0.256 0.096-0.48 0.277-0.661s0.405-0.267 0.651-0.267c0.256 0 0.48 0.085 0.661 0.267s0.267 0.405 0.267 0.661v2.208c0 0.256-0.085 0.459-0.267 0.629s-0.395 0.245-0.651 0.245c-0.256 0-0.469-0.085-0.651-0.245-0.192-0.171-0.288-0.373-0.288-0.629zM18.645 19.125c0.021-0.235 0.096-0.459 0.213-0.683s0.235-0.416 0.373-0.565c0.139-0.149 0.267-0.288 0.405-0.405 0.128-0.117 0.235-0.203 0.32-0.267l0.139-0.075c0.021-0.021 0.064-0.043 0.107-0.085 0.117-0.043 0.256-0.075 0.405-0.075 0.363 0 0.629 0.139 0.821 0.405 0.053 0.075 0.085 0.149 0.107 0.245 0.011 0.021 0.021 0.053 0.021 0.085v0.117c0 0.331-0.16 0.587-0.48 0.747-0.341 0.224-0.523 0.469-0.555 0.736-0.043 0.363 0.203 0.789 0.725 1.28 0.939 0.821 1.365 1.717 1.312 2.667-0.021 0.32-0.096 0.629-0.224 0.928s-0.288 0.544-0.459 0.747c-0.181 0.203-0.32 0.352-0.416 0.459s-0.192 0.171-0.267 0.224c-0.171 0.107-0.32 0.16-0.437 0.171-0.032 0.011-0.085 0.011-0.16 0.011-0.32 0-0.565-0.107-0.736-0.32-0.16-0.181-0.224-0.395-0.203-0.629s0.139-0.427 0.341-0.565c0.032-0.011 0.096-0.064 0.192-0.149s0.192-0.224 0.309-0.405c0.107-0.192 0.171-0.373 0.181-0.565 0.021-0.427-0.235-0.875-0.747-1.355-0.437-0.384-0.779-0.8-1.003-1.237-0.256-0.448-0.352-0.939-0.288-1.44zM21.088 9.824c0-0.267 0.085-0.48 0.245-0.64l1.557-1.579c0.192-0.181 0.405-0.267 0.651-0.267 0.256 0 0.469 0.096 0.651 0.277s0.277 0.405 0.277 0.651c0 0.267-0.096 0.491-0.277 0.661l-1.579 1.536c-0.192 0.181-0.405 0.267-0.651 0.267s-0.459-0.085-0.619-0.267c-0.171-0.171-0.256-0.395-0.256-0.64zM23.541 15.744c0-0.235 0.096-0.448 0.277-0.651 0.171-0.181 0.373-0.267 0.619-0.267h2.197c0.256 0 0.48 0.096 0.661 0.277s0.288 0.395 0.288 0.64c0 0.256-0.096 0.48-0.277 0.661-0.192 0.181-0.405 0.277-0.672 0.277h-2.197c-0.256 0-0.48-0.085-0.64-0.267-0.171-0.181-0.256-0.405-0.256-0.672z"></path>
</symbol>
<symbol id="icon-wi-night-clear" viewBox="0 0 32 32">
<path d="M8.437 15.445c0-1.024 0.203-1.995 0.597-2.933s0.939-1.739 1.611-2.411c0.672-0.672 1.483-1.216 2.421-1.621s1.92-0.608 2.933-0.608h1.216c0.171 0.043 0.245 0.149 0.245 0.299l0.053 0.939c0.043 1.355 0.523 2.507 1.461 3.456s2.069 1.461 3.403 1.515l0.875 0.075c0.171 0 0.256 0.085 0.256 0.245v1.045c0.011 1.365-0.32 2.635-0.992 3.797s-1.579 2.080-2.741 2.763c-1.152 0.672-2.421 1.013-3.787 1.013-1.035 0-2.027-0.203-2.965-0.597s-1.739-0.939-2.411-1.611c-0.672-0.672-1.205-1.483-1.6-2.411-0.373-0.939-0.576-1.92-0.576-2.955zM10.389 15.445c0 0.811 0.16 1.579 0.48 2.304 0.32 0.715 0.747 1.323 1.269 1.813s1.12 0.875 1.803 1.152c0.672 0.288 1.365 0.427 2.069 0.427 0.619 0 1.248-0.117 1.877-0.363s1.216-0.587 1.76-1.024c0.544-0.437 1.003-0.992 1.397-1.675s0.64-1.419 0.757-2.229c-1.739-0.363-3.136-1.109-4.181-2.24s-1.653-2.453-1.813-3.989c-1.024 0.064-1.941 0.373-2.784 0.939-0.832 0.565-1.483 1.28-1.941 2.155s-0.693 1.781-0.693 2.731z"></path>
</symbol>
<symbol id="icon-wi-night-partly-cloudy" viewBox="0 0 32 32">
<path d="M7.221 20.917c0 1.035 0.373 1.931 1.131 2.688s1.653 1.131 2.688 1.131h7.307c1.035 0 1.92-0.373 2.656-1.12s1.109-1.643 1.109-2.699c0-0.512-0.075-0.949-0.224-1.312 0.885-0.565 1.589-1.323 2.101-2.261s0.779-1.952 0.779-3.029c0-0.864-0.171-1.696-0.501-2.485-0.341-0.789-0.789-1.472-1.365-2.037s-1.248-1.024-2.037-1.365c-0.789-0.341-1.611-0.512-2.475-0.512-1.163 0-2.24 0.288-3.221 0.864s-1.76 1.355-2.325 2.325c-0.565 0.981-0.843 2.048-0.843 3.211v0.363c-1.077 0.608-1.781 1.504-2.123 2.656-0.811 0.256-1.451 0.704-1.931 1.355s-0.725 1.397-0.725 2.229zM9.333 20.917c0-0.448 0.139-0.832 0.427-1.152s0.651-0.501 1.088-0.544l0.672-0.085c0.128 0 0.203-0.085 0.203-0.245l0.107-0.597c0.075-0.619 0.331-1.131 0.779-1.536 0.448-0.416 0.971-0.619 1.579-0.619 0.619 0 1.163 0.203 1.611 0.619 0.459 0.416 0.725 0.928 0.8 1.536l0.085 0.693c0.064 0.16 0.16 0.245 0.267 0.245h1.397c0.459 0 0.853 0.171 1.195 0.501s0.501 0.725 0.501 1.195c0 0.48-0.171 0.885-0.501 1.227s-0.736 0.512-1.195 0.512h-7.307c-0.48 0-0.885-0.171-1.216-0.512s-0.491-0.757-0.491-1.237zM14.059 14.101c0.075-1.163 0.523-2.144 1.355-2.944 0.832-0.789 1.824-1.195 2.987-1.195 1.184 0 2.197 0.427 3.029 1.269s1.248 1.877 1.248 3.083c0 0.747-0.181 1.44-0.544 2.080s-0.853 1.152-1.472 1.547c-0.629-0.523-1.355-0.779-2.165-0.779-0.309-0.939-0.864-1.675-1.643-2.229s-1.664-0.832-2.656-0.832h-0.139z"></path>
</symbol>
<symbol id="icon-wi-sunrise" viewBox="0 0 32 32">
<path d="M2.933 16.384c0-0.267 0.107-0.512 0.32-0.736 0.235-0.203 0.491-0.309 0.747-0.309h2.485c0.288 0 0.523 0.107 0.715 0.309s0.288 0.459 0.288 0.736c0 0.309-0.096 0.565-0.288 0.768s-0.437 0.309-0.715 0.309h-2.485c-0.288 0-0.533-0.107-0.747-0.32-0.213-0.224-0.32-0.48-0.32-0.757zM6.485 7.872c0-0.288 0.096-0.533 0.277-0.725 0.245-0.213 0.491-0.32 0.757-0.32 0.277 0 0.523 0.107 0.725 0.309l1.749 1.76c0.203 0.235 0.299 0.48 0.299 0.736 0 0.299-0.096 0.555-0.288 0.747s-0.427 0.299-0.704 0.299c-0.256 0-0.512-0.107-0.747-0.309l-1.792-1.717c-0.181-0.224-0.277-0.491-0.277-0.779zM8.619 22.272c0-0.299 0.107-0.544 0.309-0.725 0.192-0.181 0.427-0.277 0.725-0.277h2.805l3.317-3.115c0.107-0.085 0.224-0.085 0.363 0l3.371 3.115h2.955c0.288 0 0.533 0.096 0.736 0.299 0.203 0.192 0.309 0.437 0.309 0.715 0 0.288-0.107 0.533-0.309 0.736s-0.448 0.309-0.736 0.309h-3.605c-0.107 0-0.213-0.021-0.309-0.075l-2.571-2.421-2.549 2.421c-0.085 0.053-0.181 0.075-0.299 0.075h-3.477c-0.288 0-0.533-0.107-0.736-0.309-0.203-0.213-0.299-0.459-0.299-0.747zM9.6 16.384c0 1.035 0.224 1.973 0.661 2.816 0.021 0.128 0.117 0.192 0.267 0.192h2.005c0.075 0 0.128-0.032 0.16-0.085 0.032-0.064 0.021-0.128-0.021-0.203-0.683-0.821-1.024-1.728-1.024-2.72 0-1.195 0.427-2.219 1.28-3.061s1.877-1.259 3.083-1.259c1.195 0 2.208 0.416 3.051 1.259s1.269 1.856 1.269 3.061c0 1.003-0.341 1.909-1.013 2.72-0.043 0.075-0.053 0.139-0.032 0.203s0.075 0.085 0.16 0.085h2.027c0.139 0 0.224-0.064 0.245-0.192 0.469-0.821 0.683-1.76 0.683-2.816 0-0.864-0.171-1.696-0.512-2.475-0.341-0.789-0.8-1.461-1.365-2.037-0.565-0.565-1.248-1.024-2.037-1.365s-1.611-0.501-2.475-0.501c-0.864 0-1.696 0.171-2.485 0.501-0.789 0.341-1.472 0.789-2.048 1.365-0.576 0.565-1.035 1.248-1.376 2.037-0.331 0.779-0.501 1.6-0.501 2.475zM14.965 6.827v-2.453c0-0.309 0.096-0.555 0.299-0.757s0.459-0.299 0.757-0.299c0.299 0 0.544 0.096 0.747 0.299s0.299 0.469 0.299 0.768v2.453c0 0.309-0.096 0.555-0.299 0.757-0.192 0.192-0.448 0.299-0.747 0.299-0.309 0-0.555-0.096-0.757-0.299s-0.299-0.459-0.299-0.768zM21.739 9.643c0-0.267 0.096-0.512 0.288-0.736l1.728-1.76c0.203-0.203 0.459-0.309 0.747-0.309s0.544 0.107 0.736 0.309c0.203 0.203 0.299 0.448 0.299 0.736 0 0.309-0.096 0.565-0.277 0.779l-1.792 1.717c-0.224 0.203-0.48 0.309-0.747 0.309-0.288 0-0.523-0.096-0.704-0.299s-0.277-0.448-0.277-0.747zM24.523 16.384c0-0.288 0.096-0.533 0.288-0.736s0.427-0.309 0.704-0.309h2.507c0.288 0 0.533 0.107 0.736 0.309s0.309 0.459 0.309 0.736c0 0.299-0.107 0.544-0.309 0.757s-0.448 0.32-0.736 0.32h-2.507c-0.288 0-0.523-0.107-0.715-0.309-0.181-0.213-0.277-0.469-0.277-0.768z"></path>
</symbol>
</defs>
</svg>
